<svg width="72" height="72" viewBox="0 0 72 72" fill="none" xmlns="http://www.w3.org/2000/svg">
<rect width="72" height="72" rx="8" fill="#E1F4FF"/>
<path d="M26.8125 22.75H45.1875C45.5743 22.75 45.953 22.8625 46.2773 23.0732C46.561 23.2576 46.7925 23.5106 46.9512 23.8076L47.0146 23.9375L51.3555 33.7031L51.4873 34H53.5C53.6989 34 53.8896 34.0791 54.0303 34.2197C54.1709 34.3604 54.25 34.5511 54.25 34.75C54.25 34.9489 54.1709 35.1396 54.0303 35.2803C53.8896 35.4209 53.6989 35.5 53.5 35.5H51.75V48.5C51.75 49.0304 51.5391 49.539 51.1641 49.9141C50.789 50.2891 50.2804 50.5 49.75 50.5H46C45.4696 50.5 44.961 50.2891 44.5859 49.9141C44.2109 49.539 44 49.0304 44 48.5V45.5H28V48.5C28 49.0304 27.7891 49.539 27.4141 49.9141C27.039 50.2891 26.5304 50.5 26 50.5H22.25C21.7196 50.5 21.211 50.2891 20.8359 49.9141C20.4609 49.539 20.25 49.0304 20.25 48.5V35.5H18.5C18.3011 35.5 18.1104 35.4209 17.9697 35.2803C17.8291 35.1396 17.75 34.9489 17.75 34.75C17.75 34.5511 17.8291 34.3604 17.9697 34.2197C18.1104 34.0791 18.3011 34 18.5 34H20.5127L20.6445 33.7031L24.9854 23.9375C25.1425 23.5842 25.3984 23.284 25.7227 23.0732C26.0065 22.8888 26.3319 22.7792 26.668 22.7549L26.8125 22.75ZM21.75 49H26.5V45.5H21.75V49ZM45.5 49H50.25V45.5H45.5V49ZM21.75 44H50.25V35.5H21.75V44ZM26 39H28.5C28.6989 39 28.8896 39.0791 29.0303 39.2197C29.1709 39.3604 29.25 39.5511 29.25 39.75C29.25 39.9489 29.1709 40.1396 29.0303 40.2803C28.8896 40.4209 28.6989 40.5 28.5 40.5H26C25.8011 40.5 25.6104 40.4209 25.4697 40.2803C25.3291 40.1396 25.25 39.9489 25.25 39.75C25.25 39.5511 25.3291 39.3604 25.4697 39.2197C25.6104 39.0791 25.8011 39 26 39ZM43.5 39H46C46.1989 39 46.3896 39.0791 46.5303 39.2197C46.6709 39.3604 46.75 39.5511 46.75 39.75C46.75 39.9489 46.6709 40.1396 46.5303 40.2803C46.3896 40.4209 46.1989 40.5 46 40.5H43.5C43.3011 40.5 43.1104 40.4209 42.9697 40.2803C42.8291 40.1396 42.75 39.9489 42.75 39.75C42.75 39.5511 42.8291 39.3604 42.9697 39.2197C43.1104 39.0791 43.3011 39 43.5 39ZM26.3555 24.5469L22.4668 33.2969L22.1543 34H49.8457L49.5332 33.2969L45.6445 24.5469L45.5127 24.25H26.4873L26.3555 24.5469Z" fill="#FBBC05" stroke="#FBBC05"/>
</svg>
