<svg width="72" height="72" viewBox="0 0 72 72" fill="none" xmlns="http://www.w3.org/2000/svg">
<rect width="72" height="72" rx="8" fill="#E1F4FF"/>
<path d="M22.6664 21.5H32.6664C34.2234 21.5 35.5002 22.776 35.5003 24.333V28.167H49.3333C50.8905 28.167 52.1664 29.4428 52.1664 31V47.667C52.1662 49.224 50.8904 50.5 49.3333 50.5H22.6664C21.1094 50.4998 19.8335 49.2239 19.8333 47.667V24.333C19.8335 22.7761 21.1094 21.5002 22.6664 21.5ZM22.1664 48.167H26.5003V43.833H22.1664V48.167ZM28.8333 48.167H33.1664V43.833H28.8333V48.167ZM35.5003 34.833H38.8333V37.167H35.5003V41.5H38.8333V43.833H35.5003V48.167H47.6664C48.8592 48.167 49.8333 47.1928 49.8333 46V32.667C49.8333 31.4742 48.8592 30.5 47.6664 30.5H35.5003V34.833ZM45.5003 41.5V43.833H43.1664V41.5H45.5003ZM22.1664 41.5H26.5003V37.167H22.1664V41.5ZM28.8333 41.5H33.1664V37.167H28.8333V41.5ZM45.5003 34.833V37.167H43.1664V34.833H45.5003ZM22.1664 34.833H26.5003V30.5H22.1664V34.833ZM28.8333 34.833H33.1664V30.5H28.8333V34.833ZM22.1664 28.167H26.5003V23.833H22.1664V28.167ZM28.8333 28.167H33.1664V23.833H28.8333V28.167Z" fill="#FBBC05" stroke="#FBBC05"/>
</svg>
