<svg width="72" height="72" viewBox="0 0 72 72" fill="none" xmlns="http://www.w3.org/2000/svg">
<rect width="72" height="72" rx="8" fill="#E1F4FF"/>
<path d="M22.6663 23.1667H49.3333C50.8904 23.1667 52.1662 24.4427 52.1663 25.9997V45.9997C52.1663 47.5569 50.8905 48.8337 49.3333 48.8337H22.6663C21.1093 48.8335 19.8333 47.5568 19.8333 45.9997V25.9997C19.8335 24.4428 21.1094 23.1669 22.6663 23.1667ZM49.0687 28.9089L35.9993 37.0768L22.932 28.9089L22.1663 28.4313V46.4997H49.8333V28.4313L49.0687 28.9089ZM22.4017 26.4245L35.7347 34.7575L36.0003 34.9225L36.265 34.7575L49.598 26.4245L51.0765 25.4997H20.9232L22.4017 26.4245Z" fill="#FBBC05" stroke="#FBBC05"/>
</svg>
